<svg version="1.1" id="Layer_1" x="0px" y="0px" viewBox="0.083 42.123 611.834 706.506" enable-background="new 0.083 42.123 611.834 706.506" space="preserve" xmlns="http://www.w3.org/2000/svg" xmlns:xlink="http://www.w3.org/1999/xlink" style="height:1em;fill:currentColor;position:relative;display:inline-block;top:.1em;">
  

  <polygon id="fill" fill="#1FA67A" points="611.917,572.024 306,748.629 0.083,572.021 0.083,218.728 306,42.123 611.917,218.728 "></polygon>
  

  <linearGradient id="gradient_1_" gradientUnits="userSpaceOnUse" x1="305.6709" y1="404.7256" x2="305.6709" y2="134.4175" gradientTransform="matrix(1 0 0 1 0 -80)">
    
	
    <stop offset="0" style="stop-color:#FFFFFF;stop-opacity:0"></stop>
    
	
    <stop offset="1" style="stop-color:#FFFFFF"></stop>
    

  </linearGradient>
  

  <path id="gradient" opacity="0.2" fill="url(#gradient_1_)" d="M305.591,54.417L59.22,197.048  c36.979,74.535,133.292,127.677,246.28,127.677c113.336,0,209.895-53.47,246.621-128.366L305.591,54.417z"></path>
  

  <g id="img"></g>
  

  <path id="outline" fill="#1B926C" d="M587.52,204.656L356.209,71.099L306,42.123l-50.209,28.976L24.48,204.656L0.083,218.728  v353.293l24.396,14.071l234.142,135.225L306,748.629l47.378-27.312L587.52,586.095l24.397-14.07V218.728L587.52,204.656z   M587.52,558.783L306,721.317L24.48,558.783v-325.15L306,71.099l0,0l281.52,162.534V558.783z"></path>
  

  <g id="text" display="none">
    
	
    <path display="inline" fill="#FFFFFF" d="M75.935,561.09v-60.881h-9.782v-9.781h9.782v-3.357c0-9.928,2.336-18.98,8.322-24.674   c4.818-4.672,11.242-6.57,17.082-6.57c4.672,0,8.468,1.022,10.95,2.045l-1.606,9.928c-2.044-0.877-4.526-1.606-8.322-1.606   c-10.804,0-13.724,9.636-13.724,20.439v3.796h17.082v9.781H88.782v60.881H75.935z"></path>
    
	
    <path display="inline" fill="#FFFFFF" d="M144.408,562.695c-18.979,0-33.871-14.016-33.871-36.353   c0-23.651,15.622-37.521,35.039-37.521c20.293,0,34.017,14.745,34.017,36.207c0,26.279-18.25,37.666-35.039,37.666H144.408z    M144.846,553.061c12.264,0,21.461-11.534,21.461-27.594c0-11.972-5.986-27.01-21.169-27.01c-15.038,0-21.607,14.016-21.607,27.447   c0,15.477,8.76,27.156,21.169,27.156H144.846z"></path>
    
	
    <path display="inline" fill="#FFFFFF" d="M195.946,512.473c0-8.321-0.146-15.475-0.584-22.045h11.242l0.584,13.869h0.438   c3.212-9.489,11.096-15.475,19.709-15.475c1.314,0,2.336,0.146,3.504,0.438v11.972c-1.46-0.146-2.774-0.292-4.526-0.292   c-9.052,0-15.476,6.861-17.228,16.352c-0.292,1.898-0.438,3.941-0.438,6.132v37.667H195.8L195.946,512.473z"></path>
    
	
    <path display="inline" fill="#FFFFFF" d="M249.965,527.949c0.292,17.373,11.242,24.527,24.089,24.527   c9.198,0,14.892-1.606,19.564-3.504l2.336,9.051c-4.526,2.045-12.41,4.526-23.652,4.526c-21.607,0-34.747-14.454-34.747-35.623   c0-21.462,12.702-38.251,33.287-38.251c23.067,0,29.053,20.293,29.053,33.287c0,2.628-0.146,4.672-0.438,6.132L249.965,527.949z    M287.486,518.751c0.146-8.03-3.357-20.878-17.665-20.878c-13.14,0-18.688,11.973-19.709,20.878H287.486z"></path>
    
	
    <path display="inline" fill="#FFFFFF" d="M366.179,558.607c-3.357,1.606-10.803,4.088-20.293,4.088   c-21.316,0-35.186-14.453-35.186-36.207c0-21.753,14.893-37.666,37.959-37.666c7.592,0,14.309,1.897,17.813,3.795l-2.92,9.782   c-3.066-1.606-7.885-3.358-14.893-3.358c-16.205,0-24.965,12.118-24.965,26.863c0,16.352,10.512,26.426,24.527,26.426   c7.299,0,12.117-1.752,15.768-3.357L366.179,558.607z"></path>
    
	
    <path display="inline" fill="#FFFFFF" d="M431.147,544.154c0,6.132,0.293,12.117,1.021,16.936h-11.533l-1.168-8.906h-0.438   c-3.797,5.549-11.533,10.512-21.607,10.512c-14.309,0-21.607-10.073-21.607-20.293c0-17.082,15.184-26.426,42.484-26.279v-1.46   c0-5.84-1.605-16.497-16.059-16.352c-6.717,0-13.578,1.897-18.543,5.256l-2.92-8.614c5.84-3.649,14.455-6.131,23.359-6.131   c21.754,0,27.01,14.745,27.01,28.906V544.154z M418.593,525.029c-14.016-0.293-29.93,2.189-29.93,15.913   c0,8.468,5.547,12.264,11.971,12.264c9.344,0,15.33-5.84,17.375-11.825c0.438-1.314,0.584-2.774,0.584-4.088V525.029z"></path>
    
	
    <path display="inline" fill="#FFFFFF" d="M449.981,548.096c3.943,2.336,10.658,4.965,17.082,4.965   c9.197,0,13.578-4.526,13.578-10.512c0-6.133-3.65-9.49-12.994-12.994c-12.848-4.672-18.834-11.533-18.834-20.002   c0-11.387,9.344-20.73,24.383-20.73c7.152,0,13.432,1.897,17.227,4.379l-3.066,9.198c-2.773-1.606-7.883-4.088-14.453-4.088   c-7.592,0-11.68,4.38-11.68,9.636c0,5.986,4.088,8.613,13.285,12.117c12.119,4.526,18.543,10.658,18.543,21.316   c0,12.555-9.783,21.314-26.279,21.314c-7.738,0-14.893-2.043-19.855-4.963L449.981,548.096z"></path>
    
	
    <path display="inline" fill="#FFFFFF" d="M525.024,473.492v16.936h18.396v9.781h-18.396v38.105c0,8.76,2.482,13.724,9.637,13.724   c3.504,0,5.547-0.292,7.445-0.876l0.584,9.781c-2.482,0.877-6.424,1.752-11.387,1.752c-5.986,0-10.805-2.043-13.871-5.401   c-3.504-3.942-4.963-10.22-4.963-18.542v-38.543h-10.949v-9.781h10.949v-12.994L525.024,473.492z"></path>
    

  </g>
  

  <g>
    
	
    <path fill="#1B926C" d="M192.786,529.813c-5.083,0-8.471-4.004-8.471-8.778s3.542-8.624,8.779-8.624   c5.236,0,8.624,3.85,8.624,8.624s-3.388,8.778-8.778,8.778H192.786z M186.318,618.059V543.52h13.552v74.539H186.318z"></path>
    
	
    <path fill="#1B926C" d="M275.485,615.44c-3.543,1.694-11.396,4.313-21.407,4.313c-22.485,0-37.116-15.247-37.116-38.194   c0-22.946,15.709-39.733,40.042-39.733c8.008,0,15.092,2.002,18.789,4.004l-3.081,10.318c-3.233-1.693-8.315-3.542-15.708-3.542   c-17.096,0-26.335,12.783-26.335,28.338c0,17.248,11.088,27.875,25.873,27.875c7.701,0,12.783-1.849,16.633-3.542L275.485,615.44z"></path>
    
	
    <path fill="#1B926C" d="M320.761,619.753c-20.021,0-35.73-14.785-35.73-38.348c0-24.949,16.479-39.58,36.962-39.58   c21.407,0,35.884,15.555,35.884,38.193c0,27.722-19.251,39.734-36.962,39.734H320.761z M321.222,609.588   c12.938,0,22.64-12.166,22.64-29.107c0-12.628-6.314-28.491-22.331-28.491c-15.863,0-22.793,14.785-22.793,28.954   c0,16.324,9.24,28.645,22.331,28.645H321.222z"></path>
    
	
    <path fill="#1B926C" d="M374.966,563.694c0-7.854-0.153-14.015-0.615-20.175h12.012l0.771,12.166h0.308   c3.696-6.93,12.321-13.86,24.642-13.86c10.318,0,26.335,6.16,26.335,31.726v44.508h-13.553v-42.968   c0-12.013-4.466-22.177-17.249-22.177c-8.778,0-15.708,6.313-18.173,13.86c-0.615,1.694-0.924,4.158-0.924,6.314v44.97h-13.553   V563.694z"></path>
    

  </g>
  

  <g>
    
	
    <path fill="#FFFFFF" d="M189.128,526.507c-5.083,0-8.471-4.004-8.471-8.778s3.542-8.624,8.779-8.624   c5.236,0,8.624,3.85,8.624,8.624s-3.388,8.778-8.778,8.778H189.128z M182.66,614.753v-74.539h13.552v74.539H182.66z"></path>
    
	
    <path fill="#FFFFFF" d="M271.827,612.135c-3.542,1.694-11.396,4.313-21.407,4.313c-22.485,0-37.116-15.247-37.116-38.194   c0-22.946,15.709-39.733,40.042-39.733c8.008,0,15.093,2.002,18.789,4.004l-3.081,10.318c-3.234-1.693-8.316-3.542-15.708-3.542   c-17.095,0-26.335,12.783-26.335,28.338c0,17.248,11.088,27.875,25.873,27.875c7.7,0,12.783-1.849,16.633-3.542L271.827,612.135z"></path>
    
	
    <path fill="#FFFFFF" d="M317.103,616.447c-20.021,0-35.73-14.785-35.73-38.348c0-24.949,16.479-39.58,36.962-39.58   c21.407,0,35.884,15.555,35.884,38.193c0,27.722-19.251,39.734-36.962,39.734H317.103z M317.563,606.282   c12.938,0,22.64-12.166,22.64-29.107c0-12.628-6.314-28.491-22.331-28.491c-15.863,0-22.793,14.785-22.793,28.954   c0,16.324,9.24,28.645,22.331,28.645H317.563z"></path>
    
	
    <path fill="#FFFFFF" d="M371.308,560.389c0-7.854-0.153-14.015-0.615-20.175h12.012l0.771,12.166h0.308   c3.696-6.93,12.321-13.86,24.642-13.86c10.318,0,26.335,6.16,26.335,31.726v44.508h-13.553v-42.968   c0-12.013-4.466-22.177-17.249-22.177c-8.778,0-15.708,6.313-18.173,13.86c-0.615,1.694-0.924,4.158-0.924,6.314v44.97h-13.553   V560.389z"></path>
    

  </g>
  

  <path fill="#1B926C" d="M419.703,238.448c0-4.908-1.717-9.079-5.152-12.514c-3.436-3.435-7.606-5.152-12.515-5.152  c-4.907,0-9.078,1.717-12.513,5.152c-3.436,3.436-5.153,7.606-5.153,12.514c0,4.907,1.718,9.079,5.153,12.514  c3.435,3.436,7.605,5.152,12.513,5.152c4.908,0,9.079-1.717,12.515-5.152C417.986,247.527,419.703,243.355,419.703,238.448z   M460.925,185.448c0,30.549-4.631,56.956-13.894,79.224s-24.813,44.381-46.651,66.342c-9.937,9.814-21.898,20.61-35.885,32.389  l-3.68,69.745c-0.246,1.963-1.228,3.559-2.945,4.785l-70.666,41.222c-0.858,0.491-1.84,0.736-2.944,0.736  c-1.472,0-2.883-0.552-4.232-1.656l-11.777-11.777c-1.595-1.718-2.086-3.681-1.472-5.89l15.642-50.791l-51.712-51.711  l-50.791,15.642c-0.368,0.124-0.92,0.185-1.656,0.185c-1.717,0-3.128-0.552-4.232-1.656l-11.778-11.778  c-2.085-2.331-2.392-4.723-0.92-7.177l41.222-70.666c1.227-1.717,2.822-2.699,4.785-2.944l69.746-3.681  c11.777-13.985,22.573-25.947,32.389-35.885c23.064-22.942,45.025-38.768,65.881-47.479c20.856-8.711,47.296-13.066,79.315-13.066  c1.718,0,3.19,0.582,4.417,1.748S460.925,183.854,460.925,185.448z"></path>
  

  <path fill="#FFFFFF" d="M414.703,233.448c0-4.908-1.717-9.079-5.152-12.514c-3.436-3.435-7.606-5.152-12.515-5.152  c-4.907,0-9.078,1.717-12.513,5.152c-3.436,3.436-5.153,7.606-5.153,12.514c0,4.907,1.718,9.079,5.153,12.514  c3.435,3.436,7.605,5.152,12.513,5.152c4.908,0,9.079-1.717,12.515-5.152C412.986,242.527,414.703,238.355,414.703,233.448z   M455.925,180.448c0,30.549-4.631,56.956-13.894,79.224s-24.813,44.381-46.651,66.342c-9.937,9.814-21.898,20.61-35.885,32.389  l-3.68,69.745c-0.246,1.963-1.228,3.559-2.945,4.785l-70.666,41.222c-0.858,0.491-1.84,0.736-2.944,0.736  c-1.472,0-2.883-0.552-4.232-1.656l-11.777-11.777c-1.595-1.718-2.086-3.681-1.472-5.89l15.642-50.791l-51.711-51.711  l-50.792,15.642c-0.368,0.124-0.92,0.185-1.656,0.185c-1.717,0-3.128-0.552-4.232-1.656l-11.778-11.778  c-2.085-2.331-2.392-4.723-0.92-7.177l41.222-70.666c1.227-1.717,2.822-2.699,4.785-2.944l69.746-3.681  c11.778-13.985,22.573-25.947,32.389-35.885c23.064-22.942,45.025-38.768,65.881-47.479c20.856-8.711,47.296-13.066,79.315-13.066  c1.718,0,3.19,0.582,4.417,1.748S455.925,178.854,455.925,180.448z"></path>
  

</svg>
