<svg docname="icons.svg" enable-background="new 0.083 42.123 611.834 706.506" id="Layer_1" space="preserve preserve" style="height:1em;position:relative;display:inline-block;top:.1em;" version="1.1" viewBox="0.083 42.123 611.834 706.506" x="0px" xmlns="http://www.w3.org/2000/svg" xmlns:cc="http://creativecommons.org/ns#" xmlns:dc="http://purl.org/dc/elements/1.1/" xmlns:inkscape="http://www.inkscape.org/namespaces/inkscape" xmlns:rdf="http://www.w3.org/1999/02/22-rdf-syntax-ns#" xmlns:sodipodi="http://sodipodi.sourceforge.net/DTD/sodipodi-0.dtd" xmlns:svg="http://www.w3.org/2000/svg" y="0px">
  <metadata id="metadata57">
    <RDF>
      <Work about="">
        <format></format>
        <type resource="http://purl.org/dc/dcmitype/StillImage"></type>
      </Work>
    </RDF>
  </metadata>
  <defs id="defs55"></defs>
  <namedview pagecolor="#ffffff" bordercolor="#666666" borderopacity="1" objecttolerance="10" gridtolerance="10" guidetolerance="10" pageopacity="0" pageshadow="2" window-width="1920" window-height="1051" id="namedview53" showgrid="false" showguides="true" zoom="1.8896055" cx="161.51478" cy="219.35185" window-x="0" window-y="0" window-maximized="1" current-layer="Layer_1">
    <grid type="xygrid" id="grid888"></grid>
  </namedview>
  <polygon id="fill" points="611.917,572.024 306,748.629 0.083,572.021 0.083,218.728 306,42.123 611.917,218.728 " fill="#1FA67A"></polygon>
  <linearGradient id="gradient_1_" gradientUnits="userSpaceOnUse" x1="305.6709" y1="404.7256" x2="305.6709" y2="134.4175" gradientTransform="matrix(1 0 0 1 0 -80)">
    <stop offset="0" style="stop-color:#FFFFFF;stop-opacity:0" id="stop3"></stop>
    <stop offset="1" style="stop-color:#FFFFFF" id="stop5"></stop>
  </linearGradient>
  <path id="gradient" opacity="0.2" fill="url(#gradient_1_)" d="M305.591,54.417L59.22,197.048  c36.979,74.535,133.292,127.677,246.28,127.677c113.336,0,209.895-53.47,246.621-128.366L305.591,54.417z"></path>
  <g id="img"></g>
  <path id="outline" d="M587.52,204.656L356.209,71.099L306,42.123l-50.209,28.976L24.48,204.656L0.083,218.728  v353.293l24.396,14.071l234.142,135.225L306,748.629l47.378-27.312L587.52,586.095l24.397-14.07V218.728L587.52,204.656z   M587.52,558.783L306,721.317L24.48,558.783v-325.15L306,71.099l0,0l281.52,162.534V558.783z" fill="#1B926C"></path>
  <g id="text" display="none">
    <path display="inline" fill="#FFFFFF" d="M75.935,561.09v-60.881h-9.782v-9.781h9.782v-3.357c0-9.928,2.336-18.98,8.322-24.674   c4.818-4.672,11.242-6.57,17.082-6.57c4.672,0,8.468,1.022,10.95,2.045l-1.606,9.928c-2.044-0.877-4.526-1.606-8.322-1.606   c-10.804,0-13.724,9.636-13.724,20.439v3.796h17.082v9.781H88.782v60.881H75.935z" id="path11"></path>
    <path display="inline" fill="#FFFFFF" d="M144.408,562.695c-18.979,0-33.871-14.016-33.871-36.353   c0-23.651,15.622-37.521,35.039-37.521c20.293,0,34.017,14.745,34.017,36.207c0,26.279-18.25,37.666-35.039,37.666H144.408z    M144.846,553.061c12.264,0,21.461-11.534,21.461-27.594c0-11.972-5.986-27.01-21.169-27.01c-15.038,0-21.607,14.016-21.607,27.447   c0,15.477,8.76,27.156,21.169,27.156H144.846z" id="path13"></path>
    <path display="inline" fill="#FFFFFF" d="M195.946,512.473c0-8.321-0.146-15.475-0.584-22.045h11.242l0.584,13.869h0.438   c3.212-9.489,11.096-15.475,19.709-15.475c1.314,0,2.336,0.146,3.504,0.438v11.972c-1.46-0.146-2.774-0.292-4.526-0.292   c-9.052,0-15.476,6.861-17.228,16.352c-0.292,1.898-0.438,3.941-0.438,6.132v37.667H195.8L195.946,512.473z" id="path15"></path>
    <path display="inline" fill="#FFFFFF" d="M249.965,527.949c0.292,17.373,11.242,24.527,24.089,24.527   c9.198,0,14.892-1.606,19.564-3.504l2.336,9.051c-4.526,2.045-12.41,4.526-23.652,4.526c-21.607,0-34.747-14.454-34.747-35.623   c0-21.462,12.702-38.251,33.287-38.251c23.067,0,29.053,20.293,29.053,33.287c0,2.628-0.146,4.672-0.438,6.132L249.965,527.949z    M287.486,518.751c0.146-8.03-3.357-20.878-17.665-20.878c-13.14,0-18.688,11.973-19.709,20.878H287.486z" id="path17"></path>
    <path display="inline" fill="#FFFFFF" d="M366.179,558.607c-3.357,1.606-10.803,4.088-20.293,4.088   c-21.316,0-35.186-14.453-35.186-36.207c0-21.753,14.893-37.666,37.959-37.666c7.592,0,14.309,1.897,17.813,3.795l-2.92,9.782   c-3.066-1.606-7.885-3.358-14.893-3.358c-16.205,0-24.965,12.118-24.965,26.863c0,16.352,10.512,26.426,24.527,26.426   c7.299,0,12.117-1.752,15.768-3.357L366.179,558.607z" id="path19"></path>
    <path display="inline" fill="#FFFFFF" d="M431.147,544.154c0,6.132,0.293,12.117,1.021,16.936h-11.533l-1.168-8.906h-0.438   c-3.797,5.549-11.533,10.512-21.607,10.512c-14.309,0-21.607-10.073-21.607-20.293c0-17.082,15.184-26.426,42.484-26.279v-1.46   c0-5.84-1.605-16.497-16.059-16.352c-6.717,0-13.578,1.897-18.543,5.256l-2.92-8.614c5.84-3.649,14.455-6.131,23.359-6.131   c21.754,0,27.01,14.745,27.01,28.906V544.154z M418.593,525.029c-14.016-0.293-29.93,2.189-29.93,15.913   c0,8.468,5.547,12.264,11.971,12.264c9.344,0,15.33-5.84,17.375-11.825c0.438-1.314,0.584-2.774,0.584-4.088V525.029z" id="path21"></path>
    <path display="inline" fill="#FFFFFF" d="M449.981,548.096c3.943,2.336,10.658,4.965,17.082,4.965   c9.197,0,13.578-4.526,13.578-10.512c0-6.133-3.65-9.49-12.994-12.994c-12.848-4.672-18.834-11.533-18.834-20.002   c0-11.387,9.344-20.73,24.383-20.73c7.152,0,13.432,1.897,17.227,4.379l-3.066,9.198c-2.773-1.606-7.883-4.088-14.453-4.088   c-7.592,0-11.68,4.38-11.68,9.636c0,5.986,4.088,8.613,13.285,12.117c12.119,4.526,18.543,10.658,18.543,21.316   c0,12.555-9.783,21.314-26.279,21.314c-7.738,0-14.893-2.043-19.855-4.963L449.981,548.096z" id="path23"></path>
    <path display="inline" fill="#FFFFFF" d="M525.024,473.492v16.936h18.396v9.781h-18.396v38.105c0,8.76,2.482,13.724,9.637,13.724   c3.504,0,5.547-0.292,7.445-0.876l0.584,9.781c-2.482,0.877-6.424,1.752-11.387,1.752c-5.986,0-10.805-2.043-13.871-5.401   c-3.504-3.942-4.963-10.22-4.963-18.542v-38.543h-10.949v-9.781h10.949v-12.994L525.024,473.492z" id="path25"></path>
  </g>
  <g id="g892" transform="translate(-16)">
    <path id="path48" d="m 419.703,238.448 c 0,-4.908 -1.717,-9.079 -5.152,-12.514 -3.436,-3.435 -7.606,-5.152 -12.515,-5.152 -4.907,0 -9.078,1.717 -12.513,5.152 -3.436,3.436 -5.153,7.606 -5.153,12.514 0,4.907 1.718,9.079 5.153,12.514 3.435,3.436 7.605,5.152 12.513,5.152 4.908,0 9.079,-1.717 12.515,-5.152 3.435,-3.435 5.152,-7.607 5.152,-12.514 z m 41.222,-53 c 0,30.549 -4.631,56.956 -13.894,79.224 -9.263,22.268 -24.813,44.381 -46.651,66.342 -9.937,9.814 -21.898,20.61 -35.885,32.389 l -3.68,69.745 c -0.246,1.963 -1.228,3.559 -2.945,4.785 l -70.666,41.222 c -0.858,0.491 -1.84,0.736 -2.944,0.736 -1.472,0 -2.883,-0.552 -4.232,-1.656 l -11.777,-11.777 c -1.595,-1.718 -2.086,-3.681 -1.472,-5.89 l 15.642,-50.791 -51.712,-51.711 -50.791,15.642 c -0.368,0.124 -0.92,0.185 -1.656,0.185 -1.717,0 -3.128,-0.552 -4.232,-1.656 l -11.778,-11.778 c -2.085,-2.331 -2.392,-4.723 -0.92,-7.177 l 41.222,-70.666 c 1.227,-1.717 2.822,-2.699 4.785,-2.944 l 69.746,-3.681 c 11.777,-13.985 22.573,-25.947 32.389,-35.885 23.064,-22.942 45.025,-38.768 65.881,-47.479 20.856,-8.711 47.296,-13.066 79.315,-13.066 1.718,0 3.19,0.582 4.417,1.748 1.227,1.166 1.838,2.545 1.838,4.139 z" connector-curvature="0" style="fill:#1b926c"></path>
    <path id="path50" d="m 414.703,233.448 c 0,-4.908 -1.717,-9.079 -5.152,-12.514 -3.436,-3.435 -7.606,-5.152 -12.515,-5.152 -4.907,0 -9.078,1.717 -12.513,5.152 -3.436,3.436 -5.153,7.606 -5.153,12.514 0,4.907 1.718,9.079 5.153,12.514 3.435,3.436 7.605,5.152 12.513,5.152 4.908,0 9.079,-1.717 12.515,-5.152 3.435,-3.435 5.152,-7.607 5.152,-12.514 z m 41.222,-53 c 0,30.549 -4.631,56.956 -13.894,79.224 -9.263,22.268 -24.813,44.381 -46.651,66.342 -9.937,9.814 -21.898,20.61 -35.885,32.389 l -3.68,69.745 c -0.246,1.963 -1.228,3.559 -2.945,4.785 l -70.666,41.222 c -0.858,0.491 -1.84,0.736 -2.944,0.736 -1.472,0 -2.883,-0.552 -4.232,-1.656 l -11.777,-11.777 c -1.595,-1.718 -2.086,-3.681 -1.472,-5.89 l 15.642,-50.791 -51.711,-51.711 -50.792,15.642 c -0.368,0.124 -0.92,0.185 -1.656,0.185 -1.717,0 -3.128,-0.552 -4.232,-1.656 l -11.778,-11.778 c -2.085,-2.331 -2.392,-4.723 -0.92,-7.177 l 41.222,-70.666 c 1.227,-1.717 2.822,-2.699 4.785,-2.944 l 69.746,-3.681 c 11.778,-13.985 22.573,-25.947 32.389,-35.885 23.064,-22.942 45.025,-38.768 65.881,-47.479 20.856,-8.711 47.296,-13.066 79.315,-13.066 1.718,0 3.19,0.582 4.417,1.748 1.227,1.166 1.838,2.545 1.838,4.139 z" connector-curvature="0" style="fill:#ffffff"></path>
  </g>
  <text space="preserve" style="font-style:normal;font-variant:normal;font-weight:normal;font-stretch:normal;font-size:40px;line-height:1.25;font-family:sans-serif;-inkscape-font-specification:sans-serif;letter-spacing:0px;word-spacing:0px;fill:#000000;fill-opacity:1;stroke:none;" x="208.89143" y="473.2114" id="text866">
    <tspan role="line" id="tspan864" x="208.89143" y="510.2114"></tspan>
  </text>
  <text space="preserve" style="font-style:normal;font-variant:normal;font-weight:normal;font-stretch:normal;font-size:40px;line-height:1.25;font-family:sans-serif;-inkscape-font-specification:sans-serif;letter-spacing:0px;word-spacing:0px;fill:#000000;fill-opacity:1;stroke:none" x="199.91042" y="464.97879" id="text870">
    <tspan role="line" id="tspan868" x="199.91042" y="501.37381"></tspan>
    <tspan role="line" x="199.91042" y="551.37378" id="tspan872"></tspan>
  </text>
  <g id="g886" transform="translate(4.055009,-1.0584222)">
    <g aria-label="icons" style="font-style:normal;font-variant:normal;font-weight:normal;font-stretch:normal;font-size:142.87927246px;line-height:1.25;font-family:sans-serif;-inkscape-font-specification:sans-serif;letter-spacing:0px;word-spacing:0px;opacity:0.98000004;fill:#1b926c;fill-opacity:1;stroke:none;stroke-width:3.57198191" id="text876">
      <path d="m 144.20319,493.98429 q 2.85758,0 5.00077,2.00031 2.28607,1.85743 2.28607,6.00093 0,4.00062 -2.28607,6.00093 -2.14319,2.00031 -5.00077,2.00031 -3.14335,0 -5.28653,-2.00031 -2.14319,-2.00031 -2.14319,-6.00093 0,-4.1435 2.14319,-6.00093 2.14318,-2.00031 5.28653,-2.00031 z m 6.14381,28.71874 v 76.58329 h -12.57338 v -76.58329 z" style="fill:#1b926c;fill-opacity:1;stroke-width:3.57198191" id="path841"></path>
      <path d="m 205.35544,600.71511 q -10.14443,0 -18.14567,-4.1435 -7.85836,-4.1435 -12.4305,-12.85913 -4.42926,-8.71564 -4.42926,-22.28917 0,-14.14505 4.71502,-23.00356 4.71502,-8.85852 12.71625,-13.00202 8.14412,-4.1435 18.43143,-4.1435 5.85805,0 11.28746,1.28592 5.42942,1.14303 8.85852,2.85758 l -3.85774,10.43019 q -3.4291,-1.28591 -8.00124,-2.42895 -4.57214,-1.14303 -8.57276,-1.14303 -22.57492,0 -22.57492,29.00449 0,13.85929 5.42941,21.28901 5.57229,7.28684 16.43112,7.28684 6.28668,0 11.0017,-1.28591 4.8579,-1.28591 8.85851,-3.14334 v 11.14458 q -3.85774,2.00031 -8.57275,3.00046 -4.57214,1.14304 -11.14458,1.14304 z" style="fill:#1b926c;fill-opacity:1;stroke-width:3.57198191" id="path843"></path>
      <path d="m 309.80012,560.85179 q 0,19.00294 -9.71579,29.43313 -9.57291,10.43019 -26.00403,10.43019 -10.14443,0 -18.14567,-4.57214 -7.85836,-4.71501 -12.43049,-13.57353 -4.57214,-9.00139 -4.57214,-21.71765 0,-19.00294 9.57291,-29.29025 9.57291,-10.28731 26.00403,-10.28731 10.43018,0 18.28854,4.71502 8.00124,4.57214 12.4305,13.43065 4.57214,8.71564 4.57214,21.43189 z m -57.86611,0 q 0,13.57353 5.28654,21.57477 5.42941,7.85836 17.14551,7.85836 11.57322,0 17.00263,-7.85836 5.42941,-8.00124 5.42941,-21.57477 0,-13.57353 -5.42941,-21.28901 -5.42941,-7.71548 -17.14551,-7.71548 -11.7161,0 -17.00263,7.71548 -5.28654,7.71548 -5.28654,21.28901 z" style="fill:#1b926c;fill-opacity:1;stroke-width:3.57198191" id="path845"></path>
      <path d="m 366.52313,521.27423 q 13.71641,0 20.7175,6.71533 7.00108,6.57245 7.00108,21.43189 v 49.86487 h -12.4305 v -49.00759 q 0,-18.43143 -17.14551,-18.43143 -12.71625,0 -17.57415,7.14396 -4.85789,7.14397 -4.85789,20.57462 v 39.72044 h -12.57338 v -76.58329 h 10.14443 l 1.85743,10.43018 h 0.71439 q 3.71487,-6.00093 10.28731,-8.85851 6.57245,-3.00047 13.85929,-3.00047 z" style="fill:#1b926c;fill-opacity:1;stroke-width:3.57198191" id="path847"></path>
      <path d="m 467.82428,578.14018 q 0,11.14459 -8.287,16.85976 -8.287,5.71517 -22.28917,5.71517 -8.00123,0 -13.85929,-1.28591 -5.71517,-1.28592 -10.14442,-3.57199 v -11.43034 q 4.57213,2.28607 11.0017,4.28638 6.57245,1.85743 13.28777,1.85743 9.57291,0 13.85929,-3.00046 4.28638,-3.14335 4.28638,-8.287 0,-2.85759 -1.57167,-5.14366 -1.57167,-2.28606 -5.71517,-4.57213 -4.00062,-2.28607 -11.57322,-5.14366 -7.42973,-2.85758 -12.71626,-5.71517 -5.28653,-2.85758 -8.14412,-6.8582 -2.85758,-4.00062 -2.85758,-10.28731 0,-9.71579 7.85836,-15.00232 8.00124,-5.28654 20.86037,-5.28654 7.00109,0 13.00201,1.4288 6.14381,1.28591 11.43035,3.71486 l -4.28638,10.00155 q -4.8579,-2.00031 -10.14443,-3.42911 -5.28653,-1.42879 -10.85882,-1.42879 -7.71549,0 -11.85898,2.57183 -4.00062,2.42895 -4.00062,6.71532 0,3.14335 1.85743,5.42942 1.85743,2.14318 6.14381,4.28637 4.42925,2.00031 11.7161,4.8579 7.28684,2.71471 12.43049,5.57229 5.14366,2.85759 7.85836,7.00109 2.71471,4.00061 2.71471,10.14442 z" style="fill:#1b926c;fill-opacity:1;stroke-width:3.57198191" id="path849"></path>
    </g>
    <g aria-label="icons" style="font-style:normal;font-variant:normal;font-weight:normal;font-stretch:normal;font-size:142.87927246px;line-height:1.25;font-family:sans-serif;-inkscape-font-specification:sans-serif;letter-spacing:0px;word-spacing:0px;fill:#ffffff;fill-opacity:1;stroke:none;stroke-width:3.57198191" id="text880">
      <path d="m 141.95793,490.39726 q 2.85759,0 5.00078,2.00031 2.28607,1.85743 2.28607,6.00093 0,4.00061 -2.28607,6.00092 -2.14319,2.00031 -5.00078,2.00031 -3.14334,0 -5.28653,-2.00031 -2.14319,-2.00031 -2.14319,-6.00092 0,-4.1435 2.14319,-6.00093 2.14319,-2.00031 5.28653,-2.00031 z m 6.14381,28.71873 v 76.58329 h -12.57337 v -76.58329 z" style="fill:#ffffff;stroke-width:3.57198191" id="path852"></path>
      <path d="m 203.11018,597.12807 q -10.14443,0 -18.14567,-4.1435 -7.85836,-4.1435 -12.43049,-12.85913 -4.42926,-8.71564 -4.42926,-22.28917 0,-14.14505 4.71501,-23.00356 4.71502,-8.85852 12.71626,-13.00201 8.14412,-4.1435 18.43143,-4.1435 5.85805,0 11.28746,1.28591 5.42941,1.14303 8.85851,2.85759 l -3.85774,10.43018 q -3.4291,-1.28591 -8.00124,-2.42894 -4.57213,-1.14304 -8.57275,-1.14304 -22.57493,0 -22.57493,29.00449 0,13.85929 5.42942,21.28901 5.57229,7.28685 16.43111,7.28685 6.28669,0 11.00171,-1.28592 4.85789,-1.28591 8.85851,-3.14334 v 11.14458 q -3.85774,2.00031 -8.57276,3.00047 -4.57213,1.14303 -11.14458,1.14303 z" style="fill:#ffffff;stroke-width:3.57198191" id="path854"></path>
      <path d="m 307.55486,557.26476 q 0,19.00294 -9.71579,29.43313 -9.57291,10.43018 -26.00402,10.43018 -10.14443,0 -18.14567,-4.57213 -7.85836,-4.71502 -12.4305,-13.57354 -4.57214,-9.00139 -4.57214,-21.71764 0,-19.00295 9.57292,-29.29026 9.57291,-10.2873 26.00402,-10.2873 10.43019,0 18.28855,4.71501 8.00124,4.57214 12.4305,13.43065 4.57213,8.71564 4.57213,21.4319 z m -57.8661,0 q 0,13.57353 5.28653,21.57477 5.42941,7.85836 17.14551,7.85836 11.57323,0 17.00264,-7.85836 5.42941,-8.00124 5.42941,-21.57477 0,-13.57354 -5.42941,-21.28902 -5.42941,-7.71548 -17.14552,-7.71548 -11.7161,0 -17.00263,7.71548 -5.28653,7.71548 -5.28653,21.28902 z" style="fill:#ffffff;stroke-width:3.57198191" id="path856"></path>
      <path d="m 364.27788,517.6872 q 13.71641,0 20.71749,6.71532 7.00109,6.57245 7.00109,21.43189 v 49.86487 h -12.4305 v -49.00759 q 0,-18.43143 -17.14551,-18.43143 -12.71626,0 -17.57415,7.14397 -4.8579,7.14396 -4.8579,20.57461 v 39.72044 h -12.57338 v -76.58329 h 10.14443 l 1.85743,10.43019 h 0.7144 q 3.71486,-6.00093 10.28731,-8.85852 6.57244,-3.00046 13.85929,-3.00046 z" style="fill:#ffffff;stroke-width:3.57198191" id="path858"></path>
      <path d="m 465.57902,574.55315 q 0,11.14458 -8.28699,16.85975 -8.287,5.71517 -22.28917,5.71517 -8.00124,0 -13.85929,-1.28591 -5.71517,-1.28591 -10.14443,-3.57198 v -11.43034 q 4.57214,2.28606 11.00171,4.28637 6.57244,1.85743 13.28777,1.85743 9.57291,0 13.85929,-3.00046 4.28638,-3.14334 4.28638,-8.287 0,-2.85758 -1.57168,-5.14365 -1.57167,-2.28607 -5.71517,-4.57214 -4.00062,-2.28607 -11.57322,-5.14365 -7.42972,-2.85759 -12.71625,-5.71517 -5.28654,-2.85759 -8.14412,-6.85821 -2.85759,-4.00062 -2.85759,-10.28731 0,-9.71579 7.85836,-15.00232 8.00124,-5.28653 20.86038,-5.28653 7.00108,0 13.00201,1.42879 6.14381,1.28591 11.43034,3.71486 l -4.28638,10.00155 q -4.85789,-2.00031 -10.14442,-3.4291 -5.28654,-1.4288 -10.85883,-1.4288 -7.71548,0 -11.85898,2.57183 -4.00062,2.42895 -4.00062,6.71533 0,3.14334 1.85743,5.42941 1.85743,2.14319 6.14381,4.28638 4.42926,2.00031 11.7161,4.85789 7.28684,2.71471 12.4305,5.57229 5.14365,2.85759 7.85836,7.00109 2.7147,4.00062 2.7147,10.14443 z" style="fill:#ffffff;stroke-width:3.57198191" id="path860"></path>
    </g>
  </g>
</svg>
